# xmcd
#
# Track frame offsets:
#	150
#	20517
#	39628
#	59867
#	79605
#	100597
#	120182
#	142664
#	164074
#	188173
#	213874
#	229739
#	249087
#	269838
#	288943
#	303828
#	322967
#	340683
#
# Disc length: 4794 seconds
#
# Revision: 0
# Processed by: cddbd v1.5.1PL0 Copyright (c) Steve Scherf et al.
# Submitted via: EasyCDDAExtractor 8.0.2.1
#
DISCID=f112b812
DTITLE=Jon B. - Best Of Jon B.
DYEAR=2004
DGENRE=R&B
TTITLE0=Someone To Love (Featuring Babyface)
TTITLE1=Pretty Girl
TTITLE2=They Don't Know
TTITLE3=Are You Still Down (Featuring Tupac)
TTITLE4=Don't Talk
TTITLE5=Cool Relax
TTITLE6=Finer Things (Featuring Nas)
TTITLE7=Don't Say
TTITLE8=Can We Get Down?
TTITLE9=Time After Time
TTITLE10=Pride and Joy
TTITLE11=Now I'm With You
TTITLE12=Do For Love (Featuring Tupac)
TTITLE13=Lay It Down
TTITLE14=I'm Right Here
TTITLE15=True Love
TTITLE16=Part 2 (Featuring Tupac)
TTITLE17=Az U
EXTD=
EXTT0=
EXTT1=
EXTT2=
EXTT3=
EXTT4=
EXTT5=
EXTT6=
EXTT7=
EXTT8=
EXTT9=
EXTT10=
EXTT11=
EXTT12=
EXTT13=
EXTT14=
EXTT15=
EXTT16=
EXTT17=
PLAYORDER=
